<svg xmlns="http://www.w3.org/2000/svg" xmlns:xlink="http://www.w3.org/1999/xlink" width="500" zoomAndPan="magnify" viewBox="0 0 375 374.999991" height="500" preserveAspectRatio="xMidYMid meet" version="1.0"><defs><g/><clipPath id="894847dcf0"><path d="M 89.289062 95.171875 L 285.789062 95.171875 L 285.789062 263 L 89.289062 263 Z M 89.289062 95.171875 " clip-rule="nonzero"/></clipPath></defs><rect x="-37.5" width="450" fill="#ffffff" y="-37.499999" height="449.999989" fill-opacity="1"/><rect x="-37.5" width="450" fill="#ffffff" y="-37.499999" height="449.999989" fill-opacity="1"/><g clip-path="url(#894847dcf0)"><path fill="#000000" d="M 225.925781 244.152344 L 244.632812 262.855469 L 285.707031 262.855469 L 245.023438 222.175781 C 252.601562 209.566406 256.964844 194.800781 256.964844 179.03125 C 256.964844 132.730469 219.441406 95.179688 173.140625 95.179688 C 168.664062 95.179688 164.304688 95.542969 160.027344 96.1875 L 190.503906 126.691406 C 212.449219 133.960938 228.277344 154.652344 228.277344 179.03125 C 228.277344 186.804688 226.65625 194.214844 223.746094 200.925781 L 212.3125 189.488281 L 171.265625 189.488281 L 205.460938 223.683594 Z M 173.140625 262.855469 L 209.597656 262.855469 L 203.8125 257.070312 L 180.410156 233.695312 C 178.03125 234 175.601562 234.167969 173.140625 234.167969 C 142.664062 234.167969 117.976562 209.480469 117.976562 179.03125 C 117.976562 156.355469 131.648438 136.898438 151.191406 128.425781 L 129.941406 107.148438 C 105.589844 121.828125 89.289062 148.527344 89.289062 179.03125 C 89.289062 225.335938 126.839844 262.855469 173.140625 262.855469 Z M 173.140625 262.855469 " fill-opacity="1" fill-rule="evenodd"/></g><g fill="#2f3336" fill-opacity="1"><g transform="translate(118.643039, 296.593017)"><g><path d="M 25.625 -4.078125 L 28.53125 -3.09375 L 26.796875 0.484375 L 23.03125 -0.71875 L 21.59375 -1.96875 C 20.6875 -1.1875 19.597656 -0.582031 18.328125 -0.15625 C 17.054688 0.269531 15.765625 0.484375 14.453125 0.484375 C 12.640625 0.484375 10.925781 0.113281 9.3125 -0.625 C 7.707031 -1.363281 6.304688 -2.363281 5.109375 -3.625 C 3.921875 -4.882812 2.976562 -6.351562 2.28125 -8.03125 C 1.59375 -9.71875 1.25 -11.492188 1.25 -13.359375 C 1.25 -15.242188 1.59375 -17.015625 2.28125 -18.671875 C 2.976562 -20.335938 3.921875 -21.800781 5.109375 -23.0625 C 6.304688 -24.320312 7.707031 -25.316406 9.3125 -26.046875 C 10.925781 -26.773438 12.640625 -27.140625 14.453125 -27.140625 C 16.265625 -27.140625 17.96875 -26.773438 19.5625 -26.046875 C 21.164062 -25.316406 22.566406 -24.320312 23.765625 -23.0625 C 24.960938 -21.800781 25.90625 -20.335938 26.59375 -18.671875 C 27.289062 -17.015625 27.640625 -15.242188 27.640625 -13.359375 C 27.640625 -11.753906 27.378906 -10.234375 26.859375 -8.796875 C 26.335938 -7.359375 25.640625 -6.0625 24.765625 -4.90625 Z M 20.609375 -8.71875 C 21.460938 -10.082031 21.890625 -11.628906 21.890625 -13.359375 C 21.890625 -14.492188 21.691406 -15.554688 21.296875 -16.546875 C 20.910156 -17.546875 20.382812 -18.414062 19.71875 -19.15625 C 19.050781 -19.894531 18.265625 -20.476562 17.359375 -20.90625 C 16.453125 -21.34375 15.484375 -21.5625 14.453125 -21.5625 C 13.421875 -21.5625 12.453125 -21.34375 11.546875 -20.90625 C 10.640625 -20.476562 9.847656 -19.894531 9.171875 -19.15625 C 8.492188 -18.414062 7.957031 -17.546875 7.5625 -16.546875 C 7.175781 -15.554688 6.984375 -14.492188 6.984375 -13.359375 C 6.984375 -12.234375 7.175781 -11.175781 7.5625 -10.1875 C 7.957031 -9.207031 8.492188 -8.347656 9.171875 -7.609375 C 9.847656 -6.867188 10.640625 -6.28125 11.546875 -5.84375 C 12.453125 -5.414062 13.421875 -5.203125 14.453125 -5.203125 C 15.390625 -5.203125 16.285156 -5.378906 17.140625 -5.734375 L 14.578125 -7.96875 L 17.859375 -11.28125 Z M 20.609375 -8.71875 "/></g></g></g><g fill="#2f3336" fill-opacity="1"><g transform="translate(148.462392, 296.593017)"><g><path d="M 16.90625 -26.765625 L 22.609375 -26.765625 L 22.609375 -9.65625 C 22.609375 -8.320312 22.332031 -7.039062 21.78125 -5.8125 C 21.226562 -4.582031 20.472656 -3.5 19.515625 -2.5625 C 18.554688 -1.632812 17.441406 -0.894531 16.171875 -0.34375 C 14.898438 0.207031 13.535156 0.484375 12.078125 0.484375 C 10.640625 0.484375 9.28125 0.207031 8 -0.34375 C 6.71875 -0.894531 5.601562 -1.632812 4.65625 -2.5625 C 3.71875 -3.5 2.96875 -4.582031 2.40625 -5.8125 C 1.851562 -7.039062 1.578125 -8.320312 1.578125 -9.65625 L 1.578125 -26.765625 L 7.28125 -26.765625 L 7.28125 -10.796875 C 7.28125 -10.035156 7.40625 -9.320312 7.65625 -8.65625 C 7.914062 -7.988281 8.257812 -7.394531 8.6875 -6.875 C 9.113281 -6.363281 9.617188 -5.957031 10.203125 -5.65625 C 10.796875 -5.351562 11.421875 -5.203125 12.078125 -5.203125 C 12.753906 -5.203125 13.378906 -5.351562 13.953125 -5.65625 C 14.535156 -5.957031 15.046875 -6.363281 15.484375 -6.875 C 15.929688 -7.394531 16.28125 -7.988281 16.53125 -8.65625 C 16.78125 -9.320312 16.90625 -10.035156 16.90625 -10.796875 Z M 16.90625 -26.765625 "/></g></g></g><g fill="#2f3336" fill-opacity="1"><g transform="translate(172.619838, 296.593017)"><g><path d="M 18.234375 -26.765625 L 29.40625 0 L 23.21875 0 L 20.796875 -5.734375 L 9.4375 -5.734375 L 7.0625 0 L 0.828125 0 L 12 -26.765625 Z M 18.65625 -10.953125 L 15.140625 -19.359375 L 11.625 -10.953125 Z M 18.65625 -10.953125 "/></g></g></g><g fill="#2f3336" fill-opacity="1"><g transform="translate(202.854394, 296.593017)"><g><path d="M 14.375 -5.203125 C 15.582031 -5.203125 16.765625 -5.476562 17.921875 -6.03125 C 19.085938 -6.59375 20.257812 -7.523438 21.4375 -8.828125 L 25.140625 -5.328125 C 23.660156 -3.410156 21.96875 -1.960938 20.0625 -0.984375 C 18.164062 -0.00390625 16.207031 0.484375 14.1875 0.484375 C 12.375 0.484375 10.675781 0.113281 9.09375 -0.625 C 7.507812 -1.363281 6.128906 -2.363281 4.953125 -3.625 C 3.785156 -4.882812 2.867188 -6.347656 2.203125 -8.015625 C 1.535156 -9.691406 1.203125 -11.472656 1.203125 -13.359375 C 1.203125 -15.242188 1.546875 -17.015625 2.234375 -18.671875 C 2.929688 -20.335938 3.867188 -21.800781 5.046875 -23.0625 C 6.234375 -24.320312 7.632812 -25.316406 9.25 -26.046875 C 10.863281 -26.773438 12.570312 -27.140625 14.375 -27.140625 C 16.0625 -27.140625 17.664062 -26.820312 19.1875 -26.1875 C 20.71875 -25.5625 22.210938 -24.519531 23.671875 -23.0625 L 20.34375 -19.03125 C 19.289062 -20.007812 18.289062 -20.664062 17.34375 -21 C 16.40625 -21.34375 15.414062 -21.515625 14.375 -21.515625 C 13.34375 -21.515625 12.367188 -21.300781 11.453125 -20.875 C 10.535156 -20.445312 9.738281 -19.867188 9.0625 -19.140625 C 8.382812 -18.410156 7.847656 -17.546875 7.453125 -16.546875 C 7.066406 -15.554688 6.875 -14.492188 6.875 -13.359375 C 6.875 -12.234375 7.066406 -11.175781 7.453125 -10.1875 C 7.847656 -9.207031 8.382812 -8.347656 9.0625 -7.609375 C 9.738281 -6.867188 10.535156 -6.28125 11.453125 -5.84375 C 12.367188 -5.414062 13.34375 -5.203125 14.375 -5.203125 Z M 14.375 -5.203125 "/></g></g></g><g fill="#2f3336" fill-opacity="1"><g transform="translate(229.087867, 296.593017)"><g><path d="M 19.75 -26.765625 L 25.484375 -26.765625 L 25.484375 0 L 19.75 0 L 19.75 -11.515625 L 7.46875 -11.515625 L 7.46875 0 L 1.78125 0 L 1.78125 -26.765625 L 7.46875 -26.765625 L 7.46875 -16.71875 L 19.75 -16.71875 Z M 19.75 -26.765625 "/></g></g></g></svg>