<svg xmlns="http://www.w3.org/2000/svg" xmlns:xlink="http://www.w3.org/1999/xlink" width="500" zoomAndPan="magnify" viewBox="0 0 375 374.999991" height="500" preserveAspectRatio="xMidYMid meet" version="1.0"><defs><g/><clipPath id="0768028971"><path d="M 130.136719 83.96875 L 244.886719 83.96875 L 244.886719 216.71875 L 130.136719 216.71875 Z M 130.136719 83.96875 " clip-rule="nonzero"/></clipPath></defs><g clip-path="url(#0768028971)"><path fill="#2f3336" d="M 187.488281 83.984375 L 158.8125 100.535156 L 130.136719 117.105469 L 130.136719 183.335938 L 158.8125 199.886719 L 158.886719 199.847656 L 158.886719 199.925781 L 187.488281 216.457031 L 216.183594 199.886719 L 217.457031 199.160156 L 244.863281 214.980469 L 244.863281 183.335938 L 216.183594 166.78125 L 187.488281 183.335938 L 158.886719 199.847656 L 158.886719 133.695312 L 187.566406 117.144531 L 216.183594 100.628906 L 216.183594 149.257812 L 244.863281 165.8125 L 244.863281 117.105469 L 216.242188 100.574219 L 216.183594 100.628906 L 216.183594 100.535156 Z M 187.488281 83.984375 " fill-opacity="1" fill-rule="evenodd"/></g><g fill="#2f3336" fill-opacity="1"><g transform="translate(117.76128, 258.71427)"><g><path d="M 25.96875 -4.125 L 28.90625 -3.140625 L 27.140625 0.5 L 23.328125 -0.71875 L 21.875 -1.984375 C 20.957031 -1.191406 19.851562 -0.578125 18.5625 -0.140625 C 17.269531 0.285156 15.960938 0.5 14.640625 0.5 C 12.804688 0.5 11.070312 0.125 9.4375 -0.625 C 7.8125 -1.382812 6.390625 -2.398438 5.171875 -3.671875 C 3.960938 -4.941406 3.007812 -6.429688 2.3125 -8.140625 C 1.613281 -9.847656 1.265625 -11.644531 1.265625 -13.53125 C 1.265625 -15.445312 1.613281 -17.242188 2.3125 -18.921875 C 3.007812 -20.609375 3.960938 -22.085938 5.171875 -23.359375 C 6.390625 -24.628906 7.8125 -25.632812 9.4375 -26.375 C 11.070312 -27.113281 12.804688 -27.484375 14.640625 -27.484375 C 16.472656 -27.484375 18.195312 -27.113281 19.8125 -26.375 C 21.4375 -25.632812 22.851562 -24.628906 24.0625 -23.359375 C 25.28125 -22.085938 26.238281 -20.609375 26.9375 -18.921875 C 27.632812 -17.242188 27.984375 -15.445312 27.984375 -13.53125 C 27.984375 -11.90625 27.722656 -10.363281 27.203125 -8.90625 C 26.679688 -7.457031 25.972656 -6.144531 25.078125 -4.96875 Z M 20.875 -8.828125 C 21.738281 -10.203125 22.171875 -11.769531 22.171875 -13.53125 C 22.171875 -14.675781 21.972656 -15.753906 21.578125 -16.765625 C 21.179688 -17.773438 20.644531 -18.65625 19.96875 -19.40625 C 19.300781 -20.15625 18.507812 -20.742188 17.59375 -21.171875 C 16.675781 -21.609375 15.691406 -21.828125 14.640625 -21.828125 C 13.597656 -21.828125 12.617188 -21.609375 11.703125 -21.171875 C 10.785156 -20.742188 9.984375 -20.15625 9.296875 -19.40625 C 8.609375 -18.65625 8.066406 -17.773438 7.671875 -16.765625 C 7.273438 -15.753906 7.078125 -14.675781 7.078125 -13.53125 C 7.078125 -12.382812 7.273438 -11.3125 7.671875 -10.3125 C 8.066406 -9.320312 8.609375 -8.453125 9.296875 -7.703125 C 9.984375 -6.953125 10.785156 -6.359375 11.703125 -5.921875 C 12.617188 -5.492188 13.597656 -5.28125 14.640625 -5.28125 C 15.585938 -5.28125 16.492188 -5.457031 17.359375 -5.8125 L 14.765625 -8.0625 L 18.078125 -11.4375 Z M 20.875 -8.828125 "/></g></g></g><g fill="#2f3336" fill-opacity="1"><g transform="translate(147.959398, 258.71427)"><g><path d="M 17.125 -27.109375 L 22.90625 -27.109375 L 22.90625 -9.78125 C 22.90625 -8.4375 22.625 -7.140625 22.0625 -5.890625 C 21.5 -4.640625 20.734375 -3.539062 19.765625 -2.59375 C 18.796875 -1.65625 17.664062 -0.90625 16.375 -0.34375 C 15.09375 0.21875 13.710938 0.5 12.234375 0.5 C 10.785156 0.5 9.410156 0.21875 8.109375 -0.34375 C 6.804688 -0.90625 5.675781 -1.65625 4.71875 -2.59375 C 3.757812 -3.539062 3 -4.640625 2.4375 -5.890625 C 1.882812 -7.140625 1.609375 -8.4375 1.609375 -9.78125 L 1.609375 -27.109375 L 7.375 -27.109375 L 7.375 -10.9375 C 7.375 -10.164062 7.5 -9.441406 7.75 -8.765625 C 8.007812 -8.097656 8.351562 -7.5 8.78125 -6.96875 C 9.21875 -6.445312 9.734375 -6.035156 10.328125 -5.734375 C 10.929688 -5.429688 11.566406 -5.28125 12.234375 -5.28125 C 12.921875 -5.28125 13.554688 -5.429688 14.140625 -5.734375 C 14.734375 -6.035156 15.25 -6.445312 15.6875 -6.96875 C 16.132812 -7.5 16.484375 -8.097656 16.734375 -8.765625 C 16.992188 -9.441406 17.125 -10.164062 17.125 -10.9375 Z M 17.125 -27.109375 "/></g></g></g><g fill="#2f3336" fill-opacity="1"><g transform="translate(172.423699, 258.71427)"><g><path d="M 18.46875 -27.109375 L 29.78125 0 L 23.515625 0 L 21.0625 -5.8125 L 9.5625 -5.8125 L 7.15625 0 L 0.84375 0 L 12.15625 -27.109375 Z M 18.890625 -11.09375 L 15.328125 -19.609375 L 11.78125 -11.09375 Z M 18.890625 -11.09375 "/></g></g></g><g fill="#2f3336" fill-opacity="1"><g transform="translate(203.042303, 258.71427)"><g><path d="M 14.5625 -5.28125 C 15.789062 -5.28125 16.988281 -5.554688 18.15625 -6.109375 C 19.332031 -6.671875 20.519531 -7.617188 21.71875 -8.953125 L 25.46875 -5.390625 C 23.957031 -3.453125 22.238281 -1.984375 20.3125 -0.984375 C 18.394531 0.00390625 16.414062 0.5 14.375 0.5 C 12.539062 0.5 10.820312 0.125 9.21875 -0.625 C 7.613281 -1.382812 6.21875 -2.398438 5.03125 -3.671875 C 3.84375 -4.941406 2.910156 -6.425781 2.234375 -8.125 C 1.554688 -9.820312 1.21875 -11.625 1.21875 -13.53125 C 1.21875 -15.445312 1.566406 -17.242188 2.265625 -18.921875 C 2.972656 -20.609375 3.925781 -22.085938 5.125 -23.359375 C 6.320312 -24.628906 7.734375 -25.632812 9.359375 -26.375 C 10.992188 -27.113281 12.726562 -27.484375 14.5625 -27.484375 C 16.269531 -27.484375 17.894531 -27.164062 19.4375 -26.53125 C 20.976562 -25.894531 22.488281 -24.835938 23.96875 -23.359375 L 20.609375 -19.265625 C 19.535156 -20.265625 18.519531 -20.9375 17.5625 -21.28125 C 16.613281 -21.625 15.613281 -21.796875 14.5625 -21.796875 C 13.519531 -21.796875 12.53125 -21.578125 11.59375 -21.140625 C 10.664062 -20.710938 9.859375 -20.128906 9.171875 -19.390625 C 8.484375 -18.648438 7.941406 -17.773438 7.546875 -16.765625 C 7.148438 -15.753906 6.953125 -14.675781 6.953125 -13.53125 C 6.953125 -12.382812 7.148438 -11.3125 7.546875 -10.3125 C 7.941406 -9.320312 8.484375 -8.453125 9.171875 -7.703125 C 9.859375 -6.953125 10.664062 -6.359375 11.59375 -5.921875 C 12.53125 -5.492188 13.519531 -5.28125 14.5625 -5.28125 Z M 14.5625 -5.28125 "/></g></g></g><g fill="#2f3336" fill-opacity="1"><g transform="translate(229.609002, 258.71427)"><g><path d="M 20 -27.109375 L 25.8125 -27.109375 L 25.8125 0 L 20 0 L 20 -11.65625 L 7.578125 -11.65625 L 7.578125 0 L 1.796875 0 L 1.796875 -27.109375 L 7.578125 -27.109375 L 7.578125 -16.9375 L 20 -16.9375 Z M 20 -27.109375 "/></g></g></g></svg>